<mxfile host="app.diagrams.net" agent="Mozilla/5.0 (Windows NT 10.0; Win64; x64) AppleWebKit/537.36 (KHTML, like Gecko) Chrome/129.0.0.0 Safari/537.36" version="24.7.17">
  <diagram name="Page-1" id="ZCiMOh7vaHykOTNhvaEy">
    <mxGraphModel dx="880" dy="434" grid="1" gridSize="10" guides="1" tooltips="1" connect="1" arrows="1" fold="1" page="1" pageScale="1" pageWidth="850" pageHeight="1100" math="0" shadow="0">
      <root>
        <mxCell id="0" />
        <mxCell id="1" parent="0" />
        <mxCell id="zzgYFnd3fq4e_SoXz73n-4" style="edgeStyle=orthogonalEdgeStyle;rounded=0;orthogonalLoop=1;jettySize=auto;html=1;exitX=0.5;exitY=1;exitDx=0;exitDy=0;entryX=0.5;entryY=0;entryDx=0;entryDy=0;" edge="1" parent="1" source="zzgYFnd3fq4e_SoXz73n-1" target="zzgYFnd3fq4e_SoXz73n-2">
          <mxGeometry relative="1" as="geometry" />
        </mxCell>
        <mxCell id="zzgYFnd3fq4e_SoXz73n-1" value="Start" style="rounded=1;whiteSpace=wrap;html=1;" vertex="1" parent="1">
          <mxGeometry x="320" y="80" width="80" height="40" as="geometry" />
        </mxCell>
        <mxCell id="zzgYFnd3fq4e_SoXz73n-7" style="edgeStyle=orthogonalEdgeStyle;rounded=0;orthogonalLoop=1;jettySize=auto;html=1;entryX=0.5;entryY=0;entryDx=0;entryDy=0;" edge="1" parent="1" source="zzgYFnd3fq4e_SoXz73n-2" target="zzgYFnd3fq4e_SoXz73n-5">
          <mxGeometry relative="1" as="geometry" />
        </mxCell>
        <mxCell id="zzgYFnd3fq4e_SoXz73n-8" style="edgeStyle=orthogonalEdgeStyle;rounded=0;orthogonalLoop=1;jettySize=auto;html=1;entryX=0.5;entryY=0;entryDx=0;entryDy=0;" edge="1" parent="1" source="zzgYFnd3fq4e_SoXz73n-2" target="zzgYFnd3fq4e_SoXz73n-6">
          <mxGeometry relative="1" as="geometry" />
        </mxCell>
        <mxCell id="zzgYFnd3fq4e_SoXz73n-2" value="Height &amp;gt; 120" style="rhombus;whiteSpace=wrap;html=1;" vertex="1" parent="1">
          <mxGeometry x="305" y="160" width="110" height="80" as="geometry" />
        </mxCell>
        <mxCell id="zzgYFnd3fq4e_SoXz73n-5" value="Can&#39;t Ride" style="rounded=1;whiteSpace=wrap;html=1;" vertex="1" parent="1">
          <mxGeometry x="200" y="240" width="80" height="40" as="geometry" />
        </mxCell>
        <mxCell id="zzgYFnd3fq4e_SoXz73n-12" style="edgeStyle=orthogonalEdgeStyle;rounded=0;orthogonalLoop=1;jettySize=auto;html=1;entryX=0.5;entryY=0;entryDx=0;entryDy=0;" edge="1" parent="1" source="zzgYFnd3fq4e_SoXz73n-6" target="zzgYFnd3fq4e_SoXz73n-11">
          <mxGeometry relative="1" as="geometry" />
        </mxCell>
        <mxCell id="zzgYFnd3fq4e_SoXz73n-6" value="Can Ride" style="rounded=1;whiteSpace=wrap;html=1;" vertex="1" parent="1">
          <mxGeometry x="440" y="240" width="80" height="40" as="geometry" />
        </mxCell>
        <mxCell id="zzgYFnd3fq4e_SoXz73n-9" value="No" style="text;html=1;align=center;verticalAlign=middle;whiteSpace=wrap;rounded=0;" vertex="1" parent="1">
          <mxGeometry x="245" y="170" width="60" height="30" as="geometry" />
        </mxCell>
        <mxCell id="zzgYFnd3fq4e_SoXz73n-10" value="Yes" style="text;html=1;align=center;verticalAlign=middle;whiteSpace=wrap;rounded=0;" vertex="1" parent="1">
          <mxGeometry x="415" y="170" width="60" height="30" as="geometry" />
        </mxCell>
        <mxCell id="zzgYFnd3fq4e_SoXz73n-16" style="edgeStyle=orthogonalEdgeStyle;rounded=0;orthogonalLoop=1;jettySize=auto;html=1;entryX=0.5;entryY=0;entryDx=0;entryDy=0;" edge="1" parent="1" source="zzgYFnd3fq4e_SoXz73n-11" target="zzgYFnd3fq4e_SoXz73n-13">
          <mxGeometry relative="1" as="geometry" />
        </mxCell>
        <mxCell id="zzgYFnd3fq4e_SoXz73n-17" style="edgeStyle=orthogonalEdgeStyle;rounded=0;orthogonalLoop=1;jettySize=auto;html=1;entryX=0.5;entryY=0;entryDx=0;entryDy=0;" edge="1" parent="1" source="zzgYFnd3fq4e_SoXz73n-11" target="zzgYFnd3fq4e_SoXz73n-14">
          <mxGeometry relative="1" as="geometry" />
        </mxCell>
        <mxCell id="zzgYFnd3fq4e_SoXz73n-18" style="edgeStyle=orthogonalEdgeStyle;rounded=0;orthogonalLoop=1;jettySize=auto;html=1;entryX=0.5;entryY=0;entryDx=0;entryDy=0;" edge="1" parent="1" source="zzgYFnd3fq4e_SoXz73n-11" target="zzgYFnd3fq4e_SoXz73n-15">
          <mxGeometry relative="1" as="geometry" />
        </mxCell>
        <mxCell id="zzgYFnd3fq4e_SoXz73n-11" value="Age" style="rhombus;whiteSpace=wrap;html=1;" vertex="1" parent="1">
          <mxGeometry x="425" y="320" width="110" height="80" as="geometry" />
        </mxCell>
        <mxCell id="zzgYFnd3fq4e_SoXz73n-13" value="15" style="rounded=1;whiteSpace=wrap;html=1;" vertex="1" parent="1">
          <mxGeometry x="320" y="440" width="80" height="40" as="geometry" />
        </mxCell>
        <mxCell id="zzgYFnd3fq4e_SoXz73n-14" value="30" style="rounded=1;whiteSpace=wrap;html=1;" vertex="1" parent="1">
          <mxGeometry x="440" y="440" width="80" height="40" as="geometry" />
        </mxCell>
        <mxCell id="zzgYFnd3fq4e_SoXz73n-15" value="50" style="rounded=1;whiteSpace=wrap;html=1;" vertex="1" parent="1">
          <mxGeometry x="560" y="440" width="80" height="40" as="geometry" />
        </mxCell>
        <mxCell id="zzgYFnd3fq4e_SoXz73n-19" value="Under 12" style="text;html=1;align=center;verticalAlign=middle;whiteSpace=wrap;rounded=0;" vertex="1" parent="1">
          <mxGeometry x="365" y="330" width="60" height="30" as="geometry" />
        </mxCell>
        <mxCell id="zzgYFnd3fq4e_SoXz73n-20" value="12-18" style="text;html=1;align=center;verticalAlign=middle;whiteSpace=wrap;rounded=0;" vertex="1" parent="1">
          <mxGeometry x="475" y="400" width="60" height="30" as="geometry" />
        </mxCell>
        <mxCell id="zzgYFnd3fq4e_SoXz73n-21" value="Over 18" style="text;html=1;align=center;verticalAlign=middle;whiteSpace=wrap;rounded=0;" vertex="1" parent="1">
          <mxGeometry x="535" y="330" width="60" height="30" as="geometry" />
        </mxCell>
      </root>
    </mxGraphModel>
  </diagram>
</mxfile>
